<?xml version="1.0" encoding="iso-8859-1"?>
<!-- Uploaded to: SVG Repo, www.svgrepo.com, Generator: SVG Repo Mixer Tools -->
<svg height="800px" width="800px" version="1.1" id="Layer_1" xmlns="http://www.w3.org/2000/svg" xmlns:xlink="http://www.w3.org/1999/xlink" 
	 viewBox="0 0 511.999 511.999" xml:space="preserve">
<path style="fill:#88888F;" d="M275.199,249.6h-38.4c0-19.2-6.442-27.79-15.36-39.68c-10.266-13.687-23.04-30.72-23.04-62.72
	s12.774-49.033,23.04-62.72c8.918-11.89,15.36-20.48,15.36-39.68h38.4c0,32-12.774,49.033-23.04,62.72
	c-8.918,11.89-15.36,20.48-15.36,39.68c0,19.2,6.442,27.79,15.36,39.68C262.425,200.567,275.199,217.6,275.199,249.6z"/>
<path style="fill:#DFDFE1;" d="M396.799,236.8H116.646c-63.521,0-116.172,50.807-116.643,114.327
	C-0.472,415.15,51.285,467.2,115.199,467.2c55.721,0,102.203-39.561,112.888-92.127C230.804,361.712,242.365,352,255.999,352l0,0
	c13.66,0,25.196,9.755,27.924,23.14c10.712,52.533,57.176,92.06,112.873,92.06c63.569,0.001,115.203-51.634,115.203-115.203
	C511.998,288.376,460.422,236.8,396.799,236.8z"/>
<path style="fill:#CFCDD2;" d="M396.799,236.8h-140.8V352c13.659,0,25.196,9.755,27.924,23.14
	c10.712,52.533,57.176,92.06,112.873,92.06c63.569,0.001,115.203-51.634,115.203-115.203
	C511.998,288.376,460.422,236.8,396.799,236.8z"/>
<polygon style="fill:#88888F;" points="134.399,300.8 95.999,300.8 95.999,332.8 63.999,332.8 63.999,371.2 95.999,371.2 
	95.999,403.2 134.399,403.2 134.399,371.2 166.399,371.2 166.399,332.8 134.399,332.8 "/>
<path style="fill:#579ADF;" d="M422.399,352c-14.116,0-25.6,11.484-25.6,25.6c0,14.116,11.484,25.6,25.6,25.6
	c14.116,0,25.6-11.484,25.6-25.6C447.999,363.484,436.515,352,422.399,352z"/>
<path style="fill:#FF4F19;" d="M371.199,300.8c-14.116,0-25.6,11.484-25.6,25.6c0,14.116,11.484,25.6,25.6,25.6
	c14.116,0,25.6-11.484,25.6-25.6C396.799,312.284,385.315,300.8,371.199,300.8z"/>
</svg>